<svg version="1.1" id="Layer_1" xmlns="http://www.w3.org/2000/svg" xmlns:xlink="http://www.w3.org/1999/xlink" x="0px" y="0px"
	 width="100%" viewBox="0 0 500 500" enable-background="new 0 0 500 500" xml:space="preserve">
<path fill="#365B6D" opacity="1.000000" stroke="none" 
	d="
M283.000000,501.000000 
	C188.666687,501.000000 94.833382,501.000000 1.000050,501.000000 
	C1.000034,334.333405 1.000034,167.666794 1.000017,1.000140 
	C167.666565,1.000093 334.333130,1.000093 500.999756,1.000047 
	C500.999847,167.666519 500.999847,334.333038 500.999939,500.999786 
	C428.500000,501.000000 356.000000,501.000000 283.000000,501.000000 
M156.388092,192.099701 
	C164.084702,202.762772 172.132523,213.193253 179.387543,224.148758 
	C188.125381,237.343430 191.296448,252.192795 190.100998,267.931824 
	C189.647339,273.904480 188.625473,279.837006 188.257568,285.812134 
	C187.946625,290.862366 188.168732,295.916260 193.725998,298.645691 
	C207.024689,305.177399 221.009232,309.220825 235.827988,309.943634 
	C242.182312,310.253601 243.257858,308.921204 244.146286,302.687958 
	C246.022141,289.526733 247.639313,276.309387 250.161911,263.269714 
	C251.082260,258.512390 254.272141,254.194168 256.351227,249.833725 
	C268.761322,254.687057 273.606262,263.991943 275.892273,274.803955 
	C277.678741,283.253174 278.416901,291.919159 279.806305,300.458679 
	C281.077606,308.272614 282.702026,309.638306 290.759735,308.878876 
	C303.800720,307.649689 316.180603,303.941010 327.953400,298.164917 
	C330.975708,296.682068 332.583160,294.698914 332.213898,291.142487 
	C331.784607,287.007751 331.813538,282.826630 331.423584,278.686371 
	C329.284149,255.971191 328.951782,233.586670 338.556061,211.985077 
	C341.953766,204.343079 343.392242,195.778046 345.251892,187.527740 
	C346.085632,183.828812 345.201813,179.814026 341.059845,178.356216 
	C337.178589,176.990189 334.951233,180.064819 333.017059,182.844101 
	C323.611084,196.359756 310.986298,205.880127 296.027954,212.372696 
	C291.028107,214.542847 285.811279,217.223648 280.551880,217.580215 
	C268.634735,218.388184 256.566620,218.690796 244.674530,217.750076 
	C225.942886,216.268311 207.604370,212.325867 192.370102,200.355194 
	C184.150116,193.896164 176.891113,186.225098 169.058655,179.258133 
	C163.854813,174.629333 158.584259,170.027924 152.946472,165.965332 
	C151.375320,164.833191 147.922409,164.874680 146.227325,165.882416 
	C145.182358,166.503677 145.040115,170.338425 145.857498,172.095444 
	C148.931747,178.703812 152.566284,185.051514 156.388092,192.099701 
M198.032227,101.457489 
	C236.486847,86.418495 272.399872,91.387352 305.857941,115.254608 
	C308.963806,117.470207 311.637665,120.284073 314.689819,122.584328 
	C318.353485,125.345459 323.168488,125.018593 326.020172,121.883972 
	C329.117096,118.479729 329.212219,114.676613 326.761780,110.884430 
	C325.870453,109.505028 324.658325,108.297470 323.449799,107.163750 
	C298.194122,83.471558 268.454987,72.413612 233.892120,77.007996 
	C193.637985,82.358894 164.915329,104.070351 147.369431,140.631088 
	C146.875076,141.661209 146.645432,142.818359 146.292358,143.916275 
	C159.535934,125.057190 176.151947,110.689461 198.032227,101.457489 
M93.881088,405.928497 
	C94.316315,402.507904 95.134666,399.056763 94.866646,395.692200 
	C94.812408,395.011322 90.659256,394.267944 88.382408,394.222412 
	C79.769432,394.050110 71.150948,394.153107 62.294296,394.153107 
	C62.294296,388.557129 62.294296,383.483673 62.294296,377.835480 
	C68.264732,377.835480 74.053352,377.625153 79.817574,377.909485 
	C83.659729,378.098999 84.967690,376.610229 84.571945,372.989563 
	C84.327843,370.756226 84.276192,368.501892 84.108337,365.772369 
	C76.493233,365.772369 69.410820,365.772369 62.340179,365.772369 
	C62.340179,360.322632 62.340179,355.405029 62.340179,349.970215 
	C73.364777,349.970215 84.105301,349.970215 95.155022,349.970215 
	C95.259956,347.825745 95.209755,346.170044 95.444519,344.555786 
	C96.154839,339.671631 94.548004,337.862305 89.239273,338.056183 
	C77.259918,338.493652 65.250809,338.340973 53.259872,338.111420 
	C49.243652,338.034546 48.124664,339.380463 48.159344,343.291595 
	C48.329239,362.449310 48.227776,381.609344 48.252262,400.768524 
	C48.254322,402.379700 48.478676,403.990570 48.629749,406.000732 
	C63.709190,406.000732 78.342796,406.000732 93.881088,405.928497 
M362.951141,396.354462 
	C364.082458,392.916656 366.089996,389.504852 366.193024,386.036499 
	C366.632904,371.229492 366.591888,356.404846 366.432495,341.589844 
	C366.420197,340.446259 364.297974,338.948273 362.850098,338.311432 
	C361.593872,337.758850 359.878479,338.368042 358.408813,338.160614 
	C354.066528,337.547729 352.653503,339.154114 352.757385,343.649231 
	C353.057312,356.631744 352.929504,369.626312 352.831940,382.615082 
	C352.778839,389.686218 349.429688,393.912048 343.511078,394.874878 
	C335.956482,396.103760 330.221497,391.309296 330.107910,383.257202 
	C329.938782,371.269257 330.153595,359.276184 330.025055,347.287231 
	C329.916718,337.184631 332.119751,338.357330 320.662354,338.148438 
	C317.508881,338.090973 316.168579,339.050323 316.201813,342.399506 
	C316.338928,356.220245 316.157501,370.044556 316.337524,383.864349 
	C316.438507,391.617371 319.439270,398.124878 326.071045,402.568359 
	C337.420349,410.172791 353.912903,407.614166 362.951141,396.354462 
M423.072113,379.591766 
	C422.991913,378.096771 422.995575,376.591766 422.818695,375.108307 
	C420.847931,358.578247 404.433960,349.639587 391.594391,360.003448 
	C390.943512,353.989807 386.393677,356.712189 383.268982,356.177277 
	C378.776703,355.408295 377.224945,357.153229 377.288849,361.870911 
	C377.543396,380.670349 377.384460,399.475281 377.409088,418.278137 
	C377.411407,420.060028 377.626709,421.841644 377.749969,423.727844 
	C382.296936,423.727844 386.383423,423.727844 391.221619,423.727844 
	C391.221619,416.658661 391.221619,409.843933 391.221619,402.501312 
	C403.966919,412.050201 418.864258,404.485962 421.890228,391.396118 
	C422.704926,387.871796 422.715149,384.161530 423.072113,379.591766 
M191.708221,391.874542 
	C189.798813,389.404572 188.283813,390.504852 186.432175,392.166351 
	C180.041107,397.901154 166.403442,395.077728 167.364639,385.650421 
	C174.561127,385.650421 181.834030,385.736816 189.104080,385.629913 
	C199.683243,385.474365 199.936554,387.988647 197.807053,374.900787 
	C195.827408,362.734009 187.972595,355.809631 176.690994,355.365082 
	C166.172516,354.950592 156.762817,361.129944 154.472809,371.019562 
	C153.303696,376.068420 153.052032,381.673340 153.888123,386.781006 
	C156.867172,404.980133 175.921753,412.889252 191.260300,402.665802 
	C197.375946,398.589600 197.478912,397.488556 191.708221,391.874542 
M220.670013,405.031311 
	C220.769745,395.720642 220.855896,386.409760 220.974030,377.099335 
	C221.051285,371.010529 223.812729,367.501465 228.616425,367.307281 
	C233.574417,367.106842 236.641220,370.686920 236.729156,377.122803 
	C236.836029,384.945038 236.735962,392.769958 236.775909,400.593414 
	C236.784805,402.334869 237.004196,404.075226 237.112350,405.612640 
	C241.841782,405.612640 245.901352,405.612640 250.421600,405.612640 
	C250.421600,394.759521 250.407822,384.297180 250.426376,373.834930 
	C250.439056,366.682892 248.357056,360.468903 241.443329,357.345795 
	C234.410904,354.169128 227.525208,354.625824 222.648117,359.320587 
	C220.126816,358.054962 218.318344,356.912933 216.348984,356.245880 
	C215.154312,355.841187 213.690460,356.321106 212.382919,356.143280 
	C208.140305,355.566406 206.977890,357.449097 207.065216,361.522400 
	C207.300629,372.503784 207.145615,383.493561 207.145584,394.480011 
	C207.145554,406.944977 207.145569,406.944977 220.670013,405.031311 
M111.634468,389.968597 
	C112.349030,392.180511 113.063698,394.392395 113.778130,396.604340 
	C116.839798,406.083679 116.844292,405.885529 126.851463,406.114075 
	C130.583206,406.199310 132.053055,404.856720 133.097076,401.464417 
	C137.198456,388.138031 141.588913,374.900665 145.844376,361.621399 
	C146.320755,360.134827 146.621170,358.591858 147.220398,356.212646 
	C143.966812,356.212646 141.474350,356.518372 139.085876,356.149963 
	C133.867783,355.345184 131.817307,357.579498 130.787033,362.591858 
	C129.181915,370.400726 126.744240,378.038452 124.659401,385.748718 
	C121.374855,377.480408 119.225342,369.190704 116.892761,360.952789 
	C116.430031,359.318604 115.402748,356.679840 114.399918,356.565002 
	C110.115181,356.074524 105.742058,356.356201 100.829819,356.356201 
	C104.567871,368.076630 107.941895,378.655670 111.634468,389.968597 
M274.170471,343.064575 
	C272.840240,343.063568 271.487396,343.219940 270.183838,343.032928 
	C265.689514,342.388000 263.656677,344.003937 264.260559,348.746552 
	C264.562317,351.116516 264.313080,353.556610 264.313080,355.964996 
	C263.736603,355.598206 263.160126,355.231415 262.583679,354.864624 
	C260.777374,356.371796 257.771088,357.622986 257.384918,359.433136 
	C256.115082,365.385193 256.863129,365.955719 264.319305,368.216980 
	C264.319305,376.061798 264.230927,384.026245 264.342072,391.987946 
	C264.475830,401.570953 267.969574,405.177979 277.502411,405.894928 
	C287.831146,406.671783 289.296692,404.893921 286.835663,394.209564 
	C285.452271,394.119598 283.709015,394.489838 282.580750,393.821625 
	C280.808594,392.772095 278.226929,391.101807 278.126831,389.555878 
	C277.657074,382.302277 277.917969,375.001343 277.917969,367.170227 
	C281.553375,367.170227 284.799896,367.170227 288.721375,367.170227 
	C288.561615,363.515259 289.606750,359.001160 288.013977,357.689056 
	C285.660248,355.750000 281.431580,356.086945 277.784363,355.414764 
	C277.784363,352.537231 278.073212,349.676971 277.662537,346.920898 
	C277.457031,345.541718 275.975250,344.352722 274.170471,343.064575 
M221.721756,199.996216 
	C228.243286,203.200760 234.370392,202.525635 239.792908,197.726715 
	C244.567245,193.501465 246.149765,188.043671 244.541351,181.877930 
	C242.724960,174.915024 236.629044,170.193298 229.612030,170.004669 
	C222.824127,169.822220 216.377914,174.227692 214.154984,180.568359 
	C211.611496,187.823380 214.013031,194.482239 221.721756,199.996216 
M297.627075,174.854492 
	C290.943146,169.607452 283.590912,169.098679 277.391968,173.454208 
	C271.898590,177.313980 269.399902,184.706055 271.537445,191.171432 
	C273.605927,197.427856 277.943848,201.227493 284.494843,202.086823 
	C291.496033,203.005219 297.718933,199.846756 300.734344,193.823227 
	C304.067627,187.164627 303.061523,180.950211 297.627075,174.854492 
M350.357239,153.730835 
	C349.656036,147.183426 349.259003,140.958298 356.408386,136.990036 
	C359.156738,135.464539 358.131287,133.071457 355.066132,132.841034 
	C348.536377,132.350159 344.873413,128.935760 343.377197,122.719261 
	C343.148621,121.769562 342.101013,121.016975 341.211395,119.894623 
	C340.251648,120.915550 339.331787,121.497108 338.993042,122.318359 
	C336.665527,127.961761 332.931396,130.970322 326.425812,130.510681 
	C323.054565,130.272461 321.519562,132.575562 324.441284,135.135406 
	C329.323517,139.412949 329.806396,144.228806 327.657471,149.886368 
	C327.300903,150.825119 327.607239,152.015671 327.607239,153.888687 
	C329.788452,153.138596 331.438141,152.875336 332.749603,152.064789 
	C337.148041,149.346344 341.072174,149.837509 345.093353,152.962311 
	C346.325836,153.920074 348.304596,153.917496 350.357239,153.730835 
M449.333801,345.404877 
	C449.673706,338.178833 449.673706,338.178864 442.252075,338.190918 
	C441.753235,338.191711 441.246490,338.249390 440.756805,338.182587 
	C437.079224,337.680695 435.797455,339.123779 435.970551,342.926514 
	C436.507202,354.717834 436.872559,366.523041 436.959808,378.325378 
	C436.988617,382.220764 438.475830,383.182220 442.012268,382.977264 
	C445.345276,382.784119 448.497101,383.580292 448.458832,378.213257 
	C448.382996,367.579529 448.979156,356.940979 449.333801,345.404877 
M445.525330,389.725464 
	C439.323700,388.514893 434.510895,391.296783 433.869507,396.462738 
	C433.352051,400.630188 435.817871,404.356689 439.913422,405.596802 
	C443.975128,406.826630 448.721161,404.870544 450.558441,401.209534 
	C452.589600,397.162170 451.119537,393.345978 445.525330,389.725464 
z"/>
<path fill="#F6F6F6" opacity="1.000000" stroke="none" 
	d="
M156.189514,191.798279 
	C152.566284,185.051514 148.931747,178.703812 145.857498,172.095444 
	C145.040115,170.338425 145.182358,166.503677 146.227325,165.882416 
	C147.922409,164.874680 151.375320,164.833191 152.946472,165.965332 
	C158.584259,170.027924 163.854813,174.629333 169.058655,179.258133 
	C176.891113,186.225098 184.150116,193.896164 192.370102,200.355194 
	C207.604370,212.325867 225.942886,216.268311 244.674530,217.750076 
	C256.566620,218.690796 268.634735,218.388184 280.551880,217.580215 
	C285.811279,217.223648 291.028107,214.542847 296.027954,212.372696 
	C310.986298,205.880127 323.611084,196.359756 333.017059,182.844101 
	C334.951233,180.064819 337.178589,176.990189 341.059845,178.356216 
	C345.201813,179.814026 346.085632,183.828812 345.251892,187.527740 
	C343.392242,195.778046 341.953766,204.343079 338.556061,211.985077 
	C328.951782,233.586670 329.284149,255.971191 331.423584,278.686371 
	C331.813538,282.826630 331.784607,287.007751 332.213898,291.142487 
	C332.583160,294.698914 330.975708,296.682068 327.953400,298.164917 
	C316.180603,303.941010 303.800720,307.649689 290.759735,308.878876 
	C282.702026,309.638306 281.077606,308.272614 279.806305,300.458679 
	C278.416901,291.919159 277.678741,283.253174 275.892273,274.803955 
	C273.606262,263.991943 268.761322,254.687057 256.351227,249.833725 
	C254.272141,254.194168 251.082260,258.512390 250.161911,263.269714 
	C247.639313,276.309387 246.022141,289.526733 244.146286,302.687958 
	C243.257858,308.921204 242.182312,310.253601 235.827988,309.943634 
	C221.009232,309.220825 207.024689,305.177399 193.725998,298.645691 
	C188.168732,295.916260 187.946625,290.862366 188.257568,285.812134 
	C188.625473,279.837006 189.647339,273.904480 190.100998,267.931824 
	C191.296448,252.192795 188.125381,237.343430 179.387543,224.148758 
	C172.132523,213.193253 164.084702,202.762772 156.189514,191.798279 
z"/>
<path fill="#41BFB9" opacity="1.000000" stroke="none" 
	d="
M197.679855,101.613716 
	C176.151947,110.689461 159.535934,125.057190 146.292358,143.916275 
	C146.645432,142.818359 146.875076,141.661209 147.369431,140.631088 
	C164.915329,104.070351 193.637985,82.358894 233.892120,77.007996 
	C268.454987,72.413612 298.194122,83.471558 323.449799,107.163750 
	C324.658325,108.297470 325.870453,109.505028 326.761780,110.884430 
	C329.212219,114.676613 329.117096,118.479729 326.020172,121.883972 
	C323.168488,125.018593 318.353485,125.345459 314.689819,122.584328 
	C311.637665,120.284073 308.963806,117.470207 305.857941,115.254608 
	C272.399872,91.387352 236.486847,86.418495 197.679855,101.613716 
z"/>
<path fill="#F2F3F3" opacity="1.000000" stroke="none" 
	d="
M93.428749,405.964600 
	C78.342796,406.000732 63.709190,406.000732 48.629749,406.000732 
	C48.478676,403.990570 48.254322,402.379700 48.252262,400.768524 
	C48.227776,381.609344 48.329239,362.449310 48.159344,343.291595 
	C48.124664,339.380463 49.243652,338.034546 53.259872,338.111420 
	C65.250809,338.340973 77.259918,338.493652 89.239273,338.056183 
	C94.548004,337.862305 96.154839,339.671631 95.444519,344.555786 
	C95.209755,346.170044 95.259956,347.825745 95.155022,349.970215 
	C84.105301,349.970215 73.364777,349.970215 62.340179,349.970215 
	C62.340179,355.405029 62.340179,360.322632 62.340179,365.772369 
	C69.410820,365.772369 76.493233,365.772369 84.108337,365.772369 
	C84.276192,368.501892 84.327843,370.756226 84.571945,372.989563 
	C84.967690,376.610229 83.659729,378.098999 79.817574,377.909485 
	C74.053352,377.625153 68.264732,377.835480 62.294296,377.835480 
	C62.294296,383.483673 62.294296,388.557129 62.294296,394.153107 
	C71.150948,394.153107 79.769432,394.050110 88.382408,394.222412 
	C90.659256,394.267944 94.812408,395.011322 94.866646,395.692200 
	C95.134666,399.056763 94.316315,402.507904 93.428749,405.964600 
z"/>
<path fill="#F2F3F3" opacity="1.000000" stroke="none" 
	d="
M362.748352,396.659241 
	C353.912903,407.614166 337.420349,410.172791 326.071045,402.568359 
	C319.439270,398.124878 316.438507,391.617371 316.337524,383.864349 
	C316.157501,370.044556 316.338928,356.220245 316.201813,342.399506 
	C316.168579,339.050323 317.508881,338.090973 320.662354,338.148438 
	C332.119751,338.357330 329.916718,337.184631 330.025055,347.287231 
	C330.153595,359.276184 329.938782,371.269257 330.107910,383.257202 
	C330.221497,391.309296 335.956482,396.103760 343.511078,394.874878 
	C349.429688,393.912048 352.778839,389.686218 352.831940,382.615082 
	C352.929504,369.626312 353.057312,356.631744 352.757385,343.649231 
	C352.653503,339.154114 354.066528,337.547729 358.408813,338.160614 
	C359.878479,338.368042 361.593872,337.758850 362.850098,338.311432 
	C364.297974,338.948273 366.420197,340.446259 366.432495,341.589844 
	C366.591888,356.404846 366.632904,371.229492 366.193024,386.036499 
	C366.089996,389.504852 364.082458,392.916656 362.748352,396.659241 
z"/>
<path fill="#F2F3F3" opacity="1.000000" stroke="none" 
	d="
M423.083374,380.064209 
	C422.715149,384.161530 422.704926,387.871796 421.890228,391.396118 
	C418.864258,404.485962 403.966919,412.050201 391.221619,402.501312 
	C391.221619,409.843933 391.221619,416.658661 391.221619,423.727844 
	C386.383423,423.727844 382.296936,423.727844 377.749969,423.727844 
	C377.626709,421.841644 377.411407,420.060028 377.409088,418.278137 
	C377.384460,399.475281 377.543396,380.670349 377.288849,361.870911 
	C377.224945,357.153229 378.776703,355.408295 383.268982,356.177277 
	C386.393677,356.712189 390.943512,353.989807 391.594391,360.003448 
	C404.433960,349.639587 420.847931,358.578247 422.818695,375.108307 
	C422.995575,376.591766 422.991913,378.096771 423.083374,380.064209 
M391.241852,380.636536 
	C391.831604,383.876007 391.750336,387.474976 393.230225,390.237579 
	C394.349274,392.326599 397.430603,394.466125 399.696594,394.530182 
	C401.977570,394.594604 405.336151,392.682709 406.463226,390.657654 
	C409.872772,384.531616 409.933868,377.744354 406.457397,371.624420 
	C405.326660,369.633820 401.940063,367.812439 399.661896,367.900330 
	C397.404327,367.987427 394.622406,370.151031 393.215698,372.192902 
	C391.824341,374.212402 391.864319,377.218048 391.241852,380.636536 
z"/>
<path fill="#F2F3F3" opacity="1.000000" stroke="none" 
	d="
M191.965088,392.127167 
	C197.478912,397.488556 197.375946,398.589600 191.260300,402.665802 
	C175.921753,412.889252 156.867172,404.980133 153.888123,386.781006 
	C153.052032,381.673340 153.303696,376.068420 154.472809,371.019562 
	C156.762817,361.129944 166.172516,354.950592 176.690994,355.365082 
	C187.972595,355.809631 195.827408,362.734009 197.807053,374.900787 
	C199.936554,387.988647 199.683243,385.474365 189.104080,385.629913 
	C181.834030,385.736816 174.561127,385.650421 167.364639,385.650421 
	C166.403442,395.077728 180.041107,397.901154 186.432175,392.166351 
	C188.283813,390.504852 189.798813,389.404572 191.965088,392.127167 
M168.166260,371.829193 
	C167.895538,373.076324 167.624832,374.323425 167.322571,375.715851 
	C173.077820,375.715851 178.485336,375.715851 184.050980,375.715851 
	C184.286133,371.639282 182.398743,369.133118 178.983673,367.924164 
	C174.818665,366.449677 171.143082,367.261230 168.166260,371.829193 
z"/>
<path fill="#F4F4F5" opacity="1.000000" stroke="none" 
	d="
M220.349121,405.369385 
	C207.145569,406.944977 207.145554,406.944977 207.145584,394.480011 
	C207.145615,383.493561 207.300629,372.503784 207.065216,361.522400 
	C206.977890,357.449097 208.140305,355.566406 212.382919,356.143280 
	C213.690460,356.321106 215.154312,355.841187 216.348984,356.245880 
	C218.318344,356.912933 220.126816,358.054962 222.648117,359.320587 
	C227.525208,354.625824 234.410904,354.169128 241.443329,357.345795 
	C248.357056,360.468903 250.439056,366.682892 250.426376,373.834930 
	C250.407822,384.297180 250.421600,394.759521 250.421600,405.612640 
	C245.901352,405.612640 241.841782,405.612640 237.112350,405.612640 
	C237.004196,404.075226 236.784805,402.334869 236.775909,400.593414 
	C236.735962,392.769958 236.836029,384.945038 236.729156,377.122803 
	C236.641220,370.686920 233.574417,367.106842 228.616425,367.307281 
	C223.812729,367.501465 221.051285,371.010529 220.974030,377.099335 
	C220.855896,386.409760 220.769745,395.720642 220.349121,405.369385 
z"/>
<path fill="#F2F3F4" opacity="1.000000" stroke="none" 
	d="
M111.475189,389.601654 
	C107.941895,378.655670 104.567871,368.076630 100.829819,356.356201 
	C105.742058,356.356201 110.115181,356.074524 114.399918,356.565002 
	C115.402748,356.679840 116.430031,359.318604 116.892761,360.952789 
	C119.225342,369.190704 121.374855,377.480408 124.659401,385.748718 
	C126.744240,378.038452 129.181915,370.400726 130.787033,362.591858 
	C131.817307,357.579498 133.867783,355.345184 139.085876,356.149963 
	C141.474350,356.518372 143.966812,356.212646 147.220398,356.212646 
	C146.621170,358.591858 146.320755,360.134827 145.844376,361.621399 
	C141.588913,374.900665 137.198456,388.138031 133.097076,401.464417 
	C132.053055,404.856720 130.583206,406.199310 126.851463,406.114075 
	C116.844292,405.885529 116.839798,406.083679 113.778130,396.604340 
	C113.063698,394.392395 112.349030,392.180511 111.475189,389.601654 
z"/>
<path fill="#EFF0F1" opacity="1.000000" stroke="none" 
	d="
M274.620605,343.071167 
	C275.975250,344.352722 277.457031,345.541718 277.662537,346.920898 
	C278.073212,349.676971 277.784363,352.537231 277.784363,355.414764 
	C281.431580,356.086945 285.660248,355.750000 288.013977,357.689056 
	C289.606750,359.001160 288.561615,363.515259 288.721375,367.170227 
	C284.799896,367.170227 281.553375,367.170227 277.917969,367.170227 
	C277.917969,375.001343 277.657074,382.302277 278.126831,389.555878 
	C278.226929,391.101807 280.808594,392.772095 282.580750,393.821625 
	C283.709015,394.489838 285.452271,394.119598 286.835663,394.209564 
	C289.296692,404.893921 287.831146,406.671783 277.502411,405.894928 
	C267.969574,405.177979 264.475830,401.570953 264.342072,391.987946 
	C264.230927,384.026245 264.319305,376.061798 264.319305,368.216980 
	C256.863129,365.955719 256.115082,365.385193 257.384918,359.433136 
	C257.771088,357.622986 260.777374,356.371796 262.583679,354.864624 
	C263.160126,355.231415 263.736603,355.598206 264.313080,355.964996 
	C264.313080,353.556610 264.562317,351.116516 264.260559,348.746552 
	C263.656677,344.003937 265.689514,342.388000 270.183838,343.032928 
	C271.487396,343.219940 272.840240,343.063568 274.620605,343.071167 
z"/>
<path fill="#F4F4F5" opacity="1.000000" stroke="none" 
	d="
M221.381775,199.830032 
	C214.013031,194.482239 211.611496,187.823380 214.154984,180.568359 
	C216.377914,174.227692 222.824127,169.822220 229.612030,170.004669 
	C236.629044,170.193298 242.724960,174.915024 244.541351,181.877930 
	C246.149765,188.043671 244.567245,193.501465 239.792908,197.726715 
	C234.370392,202.525635 228.243286,203.200760 221.381775,199.830032 
z"/>
<path fill="#F4F5F5" opacity="1.000000" stroke="none" 
	d="
M297.884277,175.111206 
	C303.061523,180.950211 304.067627,187.164627 300.734344,193.823227 
	C297.718933,199.846756 291.496033,203.005219 284.494843,202.086823 
	C277.943848,201.227493 273.605927,197.427856 271.537445,191.171432 
	C269.399902,184.706055 271.898590,177.313980 277.391968,173.454208 
	C283.590912,169.098679 290.943146,169.607452 297.884277,175.111206 
z"/>
<path fill="#41BEB8" opacity="1.000000" stroke="none" 
	d="
M350.149414,154.042755 
	C348.304596,153.917496 346.325836,153.920074 345.093353,152.962311 
	C341.072174,149.837509 337.148041,149.346344 332.749603,152.064789 
	C331.438141,152.875336 329.788452,153.138596 327.607239,153.888687 
	C327.607239,152.015671 327.300903,150.825119 327.657471,149.886368 
	C329.806396,144.228806 329.323517,139.412949 324.441284,135.135406 
	C321.519562,132.575562 323.054565,130.272461 326.425812,130.510681 
	C332.931396,130.970322 336.665527,127.961761 338.993042,122.318359 
	C339.331787,121.497108 340.251648,120.915550 341.211395,119.894623 
	C342.101013,121.016975 343.148621,121.769562 343.377197,122.719261 
	C344.873413,128.935760 348.536377,132.350159 355.066132,132.841034 
	C358.131287,133.071457 359.156738,135.464539 356.408386,136.990036 
	C349.259003,140.958298 349.656036,147.183426 350.149414,154.042755 
z"/>
<path fill="#F1F2F3" opacity="1.000000" stroke="none" 
	d="
M449.315674,345.854675 
	C448.979156,356.940979 448.382996,367.579529 448.458832,378.213257 
	C448.497101,383.580292 445.345276,382.784119 442.012268,382.977264 
	C438.475830,383.182220 436.988617,382.220764 436.959808,378.325378 
	C436.872559,366.523041 436.507202,354.717834 435.970551,342.926514 
	C435.797455,339.123779 437.079224,337.680695 440.756805,338.182587 
	C441.246490,338.249390 441.753235,338.191711 442.252075,338.190918 
	C449.673706,338.178864 449.673706,338.178833 449.315674,345.854675 
z"/>
<path fill="#F2F3F3" opacity="1.000000" stroke="none" 
	d="
M445.883759,389.865173 
	C451.119537,393.345978 452.589600,397.162170 450.558441,401.209534 
	C448.721161,404.870544 443.975128,406.826630 439.913422,405.596802 
	C435.817871,404.356689 433.352051,400.630188 433.869507,396.462738 
	C434.510895,391.296783 439.323700,388.514893 445.883759,389.865173 
z"/>
<path fill="#3B5F71" opacity="1.000000" stroke="none" 
	d="
M391.259155,380.213806 
	C391.864319,377.218048 391.824341,374.212402 393.215698,372.192902 
	C394.622406,370.151031 397.404327,367.987427 399.661896,367.900330 
	C401.940063,367.812439 405.326660,369.633820 406.457397,371.624420 
	C409.933868,377.744354 409.872772,384.531616 406.463226,390.657654 
	C405.336151,392.682709 401.977570,394.594604 399.696594,394.530182 
	C397.430603,394.466125 394.349274,392.326599 393.230225,390.237579 
	C391.750336,387.474976 391.831604,383.876007 391.259155,380.213806 
z"/>
<path fill="#3F6273" opacity="1.000000" stroke="none" 
	d="
M168.351349,371.496155 
	C171.143082,367.261230 174.818665,366.449677 178.983673,367.924164 
	C182.398743,369.133118 184.286133,371.639282 184.050980,375.715851 
	C178.485336,375.715851 173.077820,375.715851 167.322571,375.715851 
	C167.624832,374.323425 167.895538,373.076324 168.351349,371.496155 
z"/>
</svg>