<svg version="1.1" id="Layer_1" xmlns="http://www.w3.org/2000/svg" xmlns:xlink="http://www.w3.org/1999/xlink" x="0px" y="0px"
	 width="100%" viewBox="0 0 1000 500" enable-background="new 0 0 1000 500" xml:space="preserve">
<path fill="#FFFFFF" opacity="1.000000" stroke="none" 
	d="
M591.000000,501.000000 
	C394.032715,501.000000 197.565445,501.000000 1.049086,501.000000 
	C1.049086,334.393829 1.049086,167.787628 1.049086,1.090720 
	C334.217316,1.090720 667.434692,1.090720 1000.826050,1.090720 
	C1000.826050,167.666519 1000.826050,334.333252 1000.826050,501.000000 
	C864.454224,501.000000 727.977112,501.000000 591.000000,501.000000 
M101.980019,256.532318 
	C92.989105,248.106979 84.062927,239.611160 74.988396,231.276871 
	C66.535080,223.513107 58.140095,215.657379 49.270756,208.389694 
	C45.941830,205.661942 41.128418,203.140640 36.888714,206.631744 
	C32.727894,210.057922 34.819534,214.883835 36.623142,218.635590 
	C40.867161,227.463776 45.015533,236.477081 50.483086,244.548035 
	C60.843658,259.841797 72.252953,274.420227 82.954056,289.489349 
	C99.750641,313.142059 106.525620,339.421967 103.196205,368.333771 
	C102.112854,377.741272 101.610245,387.219452 100.989296,396.675018 
	C100.588989,402.770905 103.141144,407.567230 108.720139,410.040527 
	C117.215302,413.806610 125.730621,417.708435 134.577682,420.457397 
	C148.055389,424.645172 161.729294,428.601227 176.148651,427.293518 
	C184.215546,426.561920 185.032288,425.492126 186.033646,417.169678 
	C187.999771,400.828827 189.717102,384.447540 192.181839,368.180664 
	C193.957779,356.459656 197.333527,345.139557 205.962692,336.009521 
	C206.664413,336.302521 207.260864,336.534698 207.843597,336.797333 
	C224.412354,344.265778 231.675491,358.537384 234.849213,375.192291 
	C237.491898,389.060394 238.871674,403.165222 241.024902,417.132202 
	C242.057327,423.829102 244.128860,425.464630 250.913818,425.962494 
	C252.737610,426.096344 254.587830,426.176727 256.406067,426.032135 
	C277.427368,424.360626 297.130005,418.198334 315.839355,408.598206 
	C319.263550,406.841125 320.492340,404.318298 320.256866,400.536774 
	C319.253265,384.419952 318.281799,368.299072 317.537781,352.168671 
	C316.636078,332.620422 317.463928,313.331390 324.424866,294.604462 
	C329.633240,280.592468 333.941772,266.235077 338.302979,251.925385 
	C339.691986,247.367798 340.525604,242.479095 340.605896,237.724899 
	C340.709381,231.597855 337.588348,227.065872 333.472839,226.314087 
	C328.317017,225.372284 324.932220,228.412811 322.315704,232.310211 
	C308.929047,252.250214 290.533142,266.276855 269.236115,276.603119 
	C256.059967,282.991821 242.510147,287.225342 227.245880,287.583771 
	C206.664978,288.067017 186.325943,287.606628 166.116241,283.942413 
	C142.938278,279.740051 120.950523,272.515106 101.980019,256.532318 
M274.797424,92.725449 
	C174.668945,35.159882 61.647999,93.460236 34.395817,180.264206 
	C35.142509,179.323380 35.610535,178.863068 35.927593,178.315338 
	C45.451324,161.863892 57.365105,147.385422 72.111237,135.381622 
	C121.128731,95.479874 175.810135,85.858009 235.610504,105.667686 
	C256.725708,112.662376 275.224213,124.455544 291.710297,139.380600 
	C295.605194,142.906693 299.953186,145.080658 305.357819,143.456406 
	C315.257507,140.481277 318.431335,128.341949 310.365509,121.163330 
	C299.218201,111.242241 287.134247,102.373558 274.797424,92.725449 
M770.225037,240.499954 
	C770.226318,250.832245 770.165833,261.164978 770.242188,271.496735 
	C770.378906,289.981262 780.644775,302.593475 798.937012,305.487732 
	C824.907227,309.596802 843.991638,294.423126 843.056396,269.413422 
	C842.446472,253.104584 842.941528,236.754425 842.941589,220.422775 
	C842.941589,206.979401 842.941589,206.979416 829.729614,206.991165 
	C823.078796,206.997086 823.072144,206.997070 823.069641,213.475677 
	C823.062012,233.306946 823.123352,253.138535 823.025269,272.969330 
	C822.984131,281.295929 818.088379,287.312897 810.554199,288.825317 
	C799.122314,291.120178 790.200012,284.087097 790.101929,272.392059 
	C789.959473,255.394989 790.061829,238.395874 790.060852,221.397629 
	C790.059998,206.818604 790.060303,206.947235 775.398804,206.905533 
	C771.492859,206.894424 770.060547,208.015533 770.156494,212.004456 
	C770.377014,221.164871 770.225586,230.334229 770.225037,240.499954 
M382.183319,234.499969 
	C382.183563,256.156006 382.288605,277.812988 382.097168,299.467346 
	C382.058044,303.892090 383.483154,305.154053 387.835205,305.095886 
	C404.657257,304.870972 421.484100,305.004517 438.309143,305.004547 
	C450.526672,305.004547 450.405884,305.005157 450.343811,292.884430 
	C450.325317,289.266510 449.321472,287.878967 445.514130,287.949341 
	C434.190247,288.158661 422.859985,288.023895 411.532227,288.023682 
	C408.444122,288.023621 405.356049,288.023712 402.289978,288.023712 
	C402.289978,279.664429 402.289978,272.072815 402.289978,263.993591 
	C411.672943,263.993591 420.794037,263.874054 429.909149,264.055054 
	C433.342773,264.123199 434.717560,262.992889 434.660828,259.498505 
	C434.411377,244.137085 436.287628,247.369019 422.915985,247.009338 
	C422.083679,246.986954 421.250214,247.006424 420.417297,247.006424 
	C414.337799,247.006424 408.258301,247.006424 402.323853,247.006424 
	C402.323853,238.895309 402.323853,231.633926 402.323853,223.967529 
	C414.419617,223.967529 426.215942,224.127777 438.006104,223.926620 
	C452.485016,223.679611 449.946472,226.990982 450.311096,211.119431 
	C450.389008,207.729416 448.930084,206.926483 445.816498,206.942505 
	C426.160004,207.043533 406.502380,207.057281 386.846130,206.933533 
	C383.399353,206.911850 382.058380,208.019043 382.136078,211.511887 
	C382.299042,218.837982 382.184174,226.170242 382.183319,234.499969 
M866.599976,331.034302 
	C878.153931,331.034302 878.153992,331.034302 878.153992,319.535187 
	C878.153992,317.702515 878.153992,315.869843 878.153992,314.037170 
	C878.153992,309.330841 878.153931,304.624512 878.153931,300.282532 
	C882.617249,302.337616 886.312073,304.910919 890.364563,305.743530 
	C903.241821,308.389435 915.720825,301.639343 920.780457,289.336670 
	C926.274597,275.977264 926.155334,262.294189 920.823059,248.937683 
	C916.281433,237.561813 905.028015,230.653839 892.911682,232.236252 
	C887.863037,232.895630 883.137268,236.027908 878.354858,237.998581 
	C879.142700,233.558456 876.311646,232.517334 871.928772,232.957520 
	C869.454651,233.205978 866.901001,233.265457 864.443176,232.946945 
	C859.469543,232.302414 858.271606,234.464462 858.302002,239.158356 
	C858.484314,267.313629 858.391418,295.470612 858.392761,323.627045 
	C858.393127,331.024292 858.396484,331.024292 866.599976,331.034302 
M567.449097,231.858475 
	C550.742188,232.180481 538.558960,240.906723 535.395203,255.605118 
	C534.186951,261.218536 533.800537,267.212219 534.249329,272.937775 
	C535.277893,286.059998 540.152405,297.453888 553.079773,302.997101 
	C565.855835,308.475433 578.495728,307.317383 590.080139,299.328888 
	C598.101318,293.797516 598.070190,292.626312 591.278320,286.066864 
	C590.679688,285.488739 590.014343,284.965118 589.492920,284.324219 
	C587.316528,281.649078 585.560547,281.854492 583.022461,284.305939 
	C577.455872,289.682648 567.952515,290.866516 561.156738,287.559662 
	C556.164185,285.130249 553.813354,280.823792 554.713684,275.295502 
	C565.611755,275.295502 576.571350,275.295532 587.530884,275.295532 
	C600.772705,275.295532 600.772644,275.295502 599.011230,262.207489 
	C596.526733,243.747101 585.311523,232.640549 567.449097,231.858475 
M631.876038,267.545868 
	C631.908569,264.882233 631.780640,262.204926 632.005920,259.557678 
	C632.525269,253.454224 636.802551,249.271545 642.609131,248.967682 
	C648.777283,248.644913 652.998047,251.905899 654.259277,258.200531 
	C654.680115,260.300903 654.776123,262.493500 654.784851,264.644867 
	C654.833435,276.633972 654.879333,288.623993 654.763184,300.612152 
	C654.732971,303.734985 655.591064,305.249939 658.994934,305.053070 
	C662.812073,304.832275 666.656250,304.889526 670.480225,305.039856 
	C673.180908,305.146027 674.567322,304.201080 674.538757,301.391968 
	C674.373291,285.080688 674.617493,268.752991 673.936707,252.463760 
	C673.523071,242.565903 666.449829,235.161224 656.803040,232.830002 
	C647.488831,230.579178 639.029114,231.978912 631.658386,240.456100 
	C633.084106,233.359299 629.725708,232.517303 624.982239,232.963440 
	C622.341309,233.211807 619.635010,233.230072 616.998901,232.957520 
	C612.913635,232.535126 611.898254,234.299408 611.935120,238.150894 
	C612.102539,255.633667 612.007935,273.118927 612.007812,290.603302 
	C612.007690,305.182617 612.008972,305.008881 626.702271,305.108246 
	C631.135010,305.138214 632.009277,303.399475 631.938721,299.503723 
	C631.751953,289.183014 631.875793,278.856689 631.876038,267.545868 
M470.124115,270.451172 
	C473.407288,280.573120 476.784332,290.666199 479.916168,300.834778 
	C480.847534,303.858704 482.287079,305.243896 485.568146,305.063507 
	C489.888245,304.826019 494.239410,304.843048 498.561707,305.059998 
	C501.617004,305.213318 503.068512,303.924591 503.952240,301.131989 
	C510.674225,279.889984 517.422119,258.655548 524.324097,237.471619 
	C525.534790,233.755676 524.059814,233.014313 520.882202,233.054398 
	C516.883240,233.104874 512.870239,233.225052 508.886719,232.961121 
	C505.423126,232.731659 503.810913,234.053741 502.965790,237.424118 
	C500.094513,248.874985 496.970428,260.262604 493.919250,271.668030 
	C493.437622,273.468231 492.833466,275.235657 492.285980,277.018219 
	C488.525726,266.425873 485.722656,256.020538 482.979156,245.599487 
	C479.665039,233.011108 479.686890,233.005341 466.913818,233.005402 
	C465.913849,233.005417 464.906006,233.086838 463.915283,232.991257 
	C459.632324,232.578064 458.168884,233.783737 459.778412,238.369827 
	C463.411163,248.720657 466.586578,259.231995 470.124115,270.451172 
M700.691467,213.994995 
	C695.908569,213.159988 694.559875,215.397034 694.913147,219.881531 
	C695.247253,224.123184 694.984924,228.411804 694.984924,231.690308 
	C691.505371,235.057480 684.593201,229.203888 684.702393,237.406174 
	C684.748657,240.879929 683.875122,245.137680 685.551941,247.567703 
	C686.835754,249.428299 691.468445,248.978134 694.984619,249.624313 
	C694.984619,250.859268 694.984009,252.165512 694.984741,253.471741 
	C694.991211,264.801086 694.880371,276.132111 695.039734,287.459320 
	C695.180420,297.460510 699.539612,302.355286 709.431396,304.079437 
	C711.558472,304.450195 713.718994,304.857330 715.864319,304.858276 
	C731.391602,304.865082 727.670837,305.522491 728.277466,292.806091 
	C728.462585,288.925720 727.280212,287.556091 723.255493,287.607697 
	C716.992676,287.688049 714.363831,285.757812 714.208130,280.705688 
	C713.886719,270.273010 714.111389,259.823517 714.111389,249.136871 
	C715.995178,249.051865 717.455750,248.954651 718.917603,248.924896 
	C731.440002,248.670090 729.791138,251.260635 729.916748,237.203003 
	C729.918274,237.036423 729.905518,236.869232 729.915405,236.703293 
	C730.085388,233.859055 728.627014,232.901520 725.935791,232.981537 
	C722.026550,233.097778 718.111328,233.011353 714.005005,233.011353 
	C714.005005,230.198395 714.005127,228.207825 714.004944,226.217255 
	C714.003906,213.994843 714.003906,213.994843 700.691467,213.994995 
M187.769897,239.317780 
	C187.490524,237.014053 187.397858,234.669128 186.900192,232.413559 
	C184.455566,221.333847 174.400085,213.424469 163.045364,213.526947 
	C151.623169,213.630005 141.451599,222.056061 139.229645,233.255692 
	C137.012817,244.429581 143.341553,256.156189 153.855042,260.519165 
	C168.513107,266.602112 185.733826,257.309601 187.769897,239.317780 
M262.224854,217.070465 
	C250.161789,211.472656 237.105347,215.005157 230.266739,225.716980 
	C223.879410,235.721924 226.095673,249.805618 235.250412,257.387054 
	C246.362656,266.589600 262.423248,264.540833 270.864441,252.843979 
	C279.227142,241.255875 275.703094,225.611084 262.224854,217.070465 
M315.298004,152.957581 
	C313.137634,153.045486 310.945282,152.931717 308.824310,153.267975 
	C305.545502,153.787781 303.983826,155.945511 306.825500,158.295242 
	C315.627502,165.573441 317.793121,173.968689 313.139740,184.509842 
	C311.729187,187.705109 314.345001,189.745575 317.177399,187.888519 
	C326.809631,181.573196 335.409424,182.400070 343.958832,189.949066 
	C346.793304,192.451859 349.243500,190.298386 348.414612,187.211411 
	C345.436188,176.119049 348.710052,168.132294 358.599518,162.289764 
	C361.280029,160.706131 360.914490,157.969650 357.291748,157.015427 
	C355.527008,156.550568 353.735260,156.052917 351.928528,155.906799 
	C345.078857,155.352814 340.768951,152.172684 339.065948,145.188705 
	C338.374084,142.351593 336.158447,139.886047 334.636169,137.251419 
	C332.591705,139.653503 330.061523,141.795700 328.607361,144.513596 
	C325.862244,149.644272 322.896423,153.878418 315.298004,152.957581 
M961.098694,262.604095 
	C961.604431,247.660477 962.138794,232.717773 962.607178,217.772980 
	C963.014648,204.774673 964.127625,207.242447 952.070007,206.995056 
	C950.575256,206.964386 949.067261,207.113571 947.586487,206.966858 
	C944.346008,206.645874 943.102722,207.989548 943.214783,211.249252 
	C943.860046,230.011551 944.376892,248.778259 945.025696,267.540436 
	C945.066284,268.711639 945.801575,270.831879 946.309326,270.861328 
	C950.747437,271.118805 955.277832,271.406128 959.602173,270.655304 
	C960.480103,270.502869 960.605286,266.014862 961.098694,262.604095 
M939.999023,293.387543 
	C941.291687,300.388824 945.377625,304.387146 951.734192,304.871063 
	C957.619202,305.319122 963.312866,301.651825 964.980225,296.339539 
	C967.053711,289.733063 962.856873,282.672089 955.890137,281.046051 
	C947.995667,279.203491 941.196350,284.132812 939.999023,293.387543 
z"/>
<path fill="#42C1BA" opacity="1.000000" stroke="none" 
	d="
M102.251793,256.765228 
	C120.950523,272.515106 142.938278,279.740051 166.116241,283.942413 
	C186.325943,287.606628 206.664978,288.067017 227.245880,287.583771 
	C242.510147,287.225342 256.059967,282.991821 269.236115,276.603119 
	C290.533142,266.276855 308.929047,252.250214 322.315704,232.310211 
	C324.932220,228.412811 328.317017,225.372284 333.472839,226.314087 
	C337.588348,227.065872 340.709381,231.597855 340.605896,237.724899 
	C340.525604,242.479095 339.691986,247.367798 338.302979,251.925385 
	C333.941772,266.235077 329.633240,280.592468 324.424866,294.604462 
	C317.463928,313.331390 316.636078,332.620422 317.537781,352.168671 
	C318.281799,368.299072 319.253265,384.419952 320.256866,400.536774 
	C320.492340,404.318298 319.263550,406.841125 315.839355,408.598206 
	C297.130005,418.198334 277.427368,424.360626 256.406067,426.032135 
	C254.587830,426.176727 252.737610,426.096344 250.913818,425.962494 
	C244.128860,425.464630 242.057327,423.829102 241.024902,417.132202 
	C238.871674,403.165222 237.491898,389.060394 234.849213,375.192291 
	C231.675491,358.537384 224.412354,344.265778 207.843597,336.797333 
	C207.260864,336.534698 206.664413,336.302521 205.962692,336.009521 
	C197.333527,345.139557 193.957779,356.459656 192.181839,368.180664 
	C189.717102,384.447540 187.999771,400.828827 186.033646,417.169678 
	C185.032288,425.492126 184.215546,426.561920 176.148651,427.293518 
	C161.729294,428.601227 148.055389,424.645172 134.577682,420.457397 
	C125.730621,417.708435 117.215302,413.806610 108.720139,410.040527 
	C103.141144,407.567230 100.588989,402.770905 100.989296,396.675018 
	C101.610245,387.219452 102.112854,377.741272 103.196205,368.333771 
	C106.525620,339.421967 99.750641,313.142059 82.954056,289.489349 
	C72.252953,274.420227 60.843658,259.841797 50.483086,244.548035 
	C45.015533,236.477081 40.867161,227.463776 36.623142,218.635590 
	C34.819534,214.883835 32.727894,210.057922 36.888714,206.631744 
	C41.128418,203.140640 45.941830,205.661942 49.270756,208.389694 
	C58.140095,215.657379 66.535080,223.513107 74.988396,231.276871 
	C84.062927,239.611160 92.989105,248.106979 102.251793,256.765228 
z"/>
<path fill="#385D6F" opacity="1.000000" stroke="none" 
	d="
M275.124451,92.889809 
	C287.134247,102.373558 299.218201,111.242241 310.365509,121.163330 
	C318.431335,128.341949 315.257507,140.481277 305.357819,143.456406 
	C299.953186,145.080658 295.605194,142.906693 291.710297,139.380600 
	C275.224213,124.455544 256.725708,112.662376 235.610504,105.667686 
	C175.810135,85.858009 121.128731,95.479874 72.111237,135.381622 
	C57.365105,147.385422 45.451324,161.863892 35.927593,178.315338 
	C35.610535,178.863068 35.142509,179.323380 34.395817,180.264206 
	C61.647999,93.460236 174.668945,35.159882 275.124451,92.889809 
z"/>
<path fill="#395D6F" opacity="1.000000" stroke="none" 
	d="
M770.225098,239.999954 
	C770.225586,230.334229 770.377014,221.164871 770.156494,212.004456 
	C770.060547,208.015533 771.492859,206.894424 775.398804,206.905533 
	C790.060303,206.947235 790.059998,206.818604 790.060852,221.397629 
	C790.061829,238.395874 789.959473,255.394989 790.101929,272.392059 
	C790.200012,284.087097 799.122314,291.120178 810.554199,288.825317 
	C818.088379,287.312897 822.984131,281.295929 823.025269,272.969330 
	C823.123352,253.138535 823.062012,233.306946 823.069641,213.475677 
	C823.072144,206.997070 823.078796,206.997086 829.729614,206.991165 
	C842.941589,206.979416 842.941589,206.979401 842.941589,220.422775 
	C842.941528,236.754425 842.446472,253.104584 843.056396,269.413422 
	C843.991638,294.423126 824.907227,309.596802 798.937012,305.487732 
	C780.644775,302.593475 770.378906,289.981262 770.242188,271.496735 
	C770.165833,261.164978 770.226318,250.832245 770.225098,239.999954 
z"/>
<path fill="#385D6F" opacity="1.000000" stroke="none" 
	d="
M382.183350,233.999969 
	C382.184174,226.170242 382.299042,218.837982 382.136078,211.511887 
	C382.058380,208.019043 383.399353,206.911850 386.846130,206.933533 
	C406.502380,207.057281 426.160004,207.043533 445.816498,206.942505 
	C448.930084,206.926483 450.389008,207.729416 450.311096,211.119431 
	C449.946472,226.990982 452.485016,223.679611 438.006104,223.926620 
	C426.215942,224.127777 414.419617,223.967529 402.323853,223.967529 
	C402.323853,231.633926 402.323853,238.895309 402.323853,247.006424 
	C408.258301,247.006424 414.337799,247.006424 420.417297,247.006424 
	C421.250214,247.006424 422.083679,246.986954 422.915985,247.009338 
	C436.287628,247.369019 434.411377,244.137085 434.660828,259.498505 
	C434.717560,262.992889 433.342773,264.123199 429.909149,264.055054 
	C420.794037,263.874054 411.672943,263.993591 402.289978,263.993591 
	C402.289978,272.072815 402.289978,279.664429 402.289978,288.023712 
	C405.356049,288.023712 408.444122,288.023621 411.532227,288.023682 
	C422.859985,288.023895 434.190247,288.158661 445.514130,287.949341 
	C449.321472,287.878967 450.325317,289.266510 450.343811,292.884430 
	C450.405884,305.005157 450.526672,305.004547 438.309143,305.004547 
	C421.484100,305.004517 404.657257,304.870972 387.835205,305.095886 
	C383.483154,305.154053 382.058044,303.892090 382.097168,299.467346 
	C382.288605,277.812988 382.183563,256.156006 382.183350,233.999969 
z"/>
<path fill="#3A5E70" opacity="1.000000" stroke="none" 
	d="
M866.124084,331.034302 
	C858.396484,331.024292 858.393127,331.024292 858.392761,323.627045 
	C858.391418,295.470612 858.484314,267.313629 858.302002,239.158356 
	C858.271606,234.464462 859.469543,232.302414 864.443176,232.946945 
	C866.901001,233.265457 869.454651,233.205978 871.928772,232.957520 
	C876.311646,232.517334 879.142700,233.558456 878.354858,237.998581 
	C883.137268,236.027908 887.863037,232.895630 892.911682,232.236252 
	C905.028015,230.653839 916.281433,237.561813 920.823059,248.937683 
	C926.155334,262.294189 926.274597,275.977264 920.780457,289.336670 
	C915.720825,301.639343 903.241821,308.389435 890.364563,305.743530 
	C886.312073,304.910919 882.617249,302.337616 878.153931,300.282532 
	C878.153931,304.624512 878.153992,309.330841 878.153992,314.037170 
	C878.153992,315.869843 878.153992,317.702515 878.153992,319.535187 
	C878.153992,331.034302 878.153931,331.034302 866.124084,331.034302 
M899.933044,284.309479 
	C904.837463,275.646118 905.025330,266.585266 901.831299,257.412842 
	C899.883728,251.819931 895.778198,249.021759 890.666016,249.101166 
	C885.860107,249.175827 882.021606,252.076263 880.175781,257.578552 
	C877.735901,264.851593 877.662781,272.287628 879.879395,279.623871 
	C882.889954,289.588257 891.691895,291.902100 899.933044,284.309479 
z"/>
<path fill="#395D6F" opacity="1.000000" stroke="none" 
	d="
M567.918945,231.870056 
	C585.311523,232.640549 596.526733,243.747101 599.011230,262.207489 
	C600.772644,275.295502 600.772705,275.295532 587.530884,275.295532 
	C576.571350,275.295532 565.611755,275.295502 554.713684,275.295502 
	C553.813354,280.823792 556.164185,285.130249 561.156738,287.559662 
	C567.952515,290.866516 577.455872,289.682648 583.022461,284.305939 
	C585.560547,281.854492 587.316528,281.649078 589.492920,284.324219 
	C590.014343,284.965118 590.679688,285.488739 591.278320,286.066864 
	C598.070190,292.626312 598.101318,293.797516 590.080139,299.328888 
	C578.495728,307.317383 565.855835,308.475433 553.079773,302.997101 
	C540.152405,297.453888 535.277893,286.059998 534.249329,272.937775 
	C533.800537,267.212219 534.186951,261.218536 535.395203,255.605118 
	C538.558960,240.906723 550.742188,232.180481 567.918945,231.870056 
M564.846863,248.992371 
	C557.690979,250.626572 555.417053,253.235825 554.509399,261.089325 
	C562.604675,261.089325 570.669250,261.089325 578.729309,261.089325 
	C578.897156,253.261917 574.446960,249.207565 564.846863,248.992371 
z"/>
<path fill="#375C6E" opacity="1.000000" stroke="none" 
	d="
M631.875977,268.039246 
	C631.875793,278.856689 631.751953,289.183014 631.938721,299.503723 
	C632.009277,303.399475 631.135010,305.138214 626.702271,305.108246 
	C612.008972,305.008881 612.007690,305.182617 612.007812,290.603302 
	C612.007935,273.118927 612.102539,255.633667 611.935120,238.150894 
	C611.898254,234.299408 612.913635,232.535126 616.998901,232.957520 
	C619.635010,233.230072 622.341309,233.211807 624.982239,232.963440 
	C629.725708,232.517303 633.084106,233.359299 631.658386,240.456100 
	C639.029114,231.978912 647.488831,230.579178 656.803040,232.830002 
	C666.449829,235.161224 673.523071,242.565903 673.936707,252.463760 
	C674.617493,268.752991 674.373291,285.080688 674.538757,301.391968 
	C674.567322,304.201080 673.180908,305.146027 670.480225,305.039856 
	C666.656250,304.889526 662.812073,304.832275 658.994934,305.053070 
	C655.591064,305.249939 654.732971,303.734985 654.763184,300.612152 
	C654.879333,288.623993 654.833435,276.633972 654.784851,264.644867 
	C654.776123,262.493500 654.680115,260.300903 654.259277,258.200531 
	C652.998047,251.905899 648.777283,248.644913 642.609131,248.967682 
	C636.802551,249.271545 632.525269,253.454224 632.005920,259.557678 
	C631.780640,262.204926 631.908569,264.882233 631.875977,268.039246 
z"/>
<path fill="#385D6F" opacity="1.000000" stroke="none" 
	d="
M470.036072,270.064606 
	C466.586578,259.231995 463.411163,248.720657 459.778412,238.369827 
	C458.168884,233.783737 459.632324,232.578064 463.915283,232.991257 
	C464.906006,233.086838 465.913849,233.005417 466.913818,233.005402 
	C479.686890,233.005341 479.665039,233.011108 482.979156,245.599487 
	C485.722656,256.020538 488.525726,266.425873 492.285980,277.018219 
	C492.833466,275.235657 493.437622,273.468231 493.919250,271.668030 
	C496.970428,260.262604 500.094513,248.874985 502.965790,237.424118 
	C503.810913,234.053741 505.423126,232.731659 508.886719,232.961121 
	C512.870239,233.225052 516.883240,233.104874 520.882202,233.054398 
	C524.059814,233.014313 525.534790,233.755676 524.324097,237.471619 
	C517.422119,258.655548 510.674225,279.889984 503.952240,301.131989 
	C503.068512,303.924591 501.617004,305.213318 498.561707,305.059998 
	C494.239410,304.843048 489.888245,304.826019 485.568146,305.063507 
	C482.287079,305.243896 480.847534,303.858704 479.916168,300.834778 
	C476.784332,290.666199 473.407288,280.573120 470.036072,270.064606 
z"/>
<path fill="#375C6E" opacity="1.000000" stroke="none" 
	d="
M701.167603,213.994934 
	C714.003906,213.994843 714.003906,213.994843 714.004944,226.217255 
	C714.005127,228.207825 714.005005,230.198395 714.005005,233.011353 
	C718.111328,233.011353 722.026550,233.097778 725.935791,232.981537 
	C728.627014,232.901520 730.085388,233.859055 729.915405,236.703293 
	C729.905518,236.869232 729.918274,237.036423 729.916748,237.203003 
	C729.791138,251.260635 731.440002,248.670090 718.917603,248.924896 
	C717.455750,248.954651 715.995178,249.051865 714.111389,249.136871 
	C714.111389,259.823517 713.886719,270.273010 714.208130,280.705688 
	C714.363831,285.757812 716.992676,287.688049 723.255493,287.607697 
	C727.280212,287.556091 728.462585,288.925720 728.277466,292.806091 
	C727.670837,305.522491 731.391602,304.865082 715.864319,304.858276 
	C713.718994,304.857330 711.558472,304.450195 709.431396,304.079437 
	C699.539612,302.355286 695.180420,297.460510 695.039734,287.459320 
	C694.880371,276.132111 694.991211,264.801086 694.984741,253.471741 
	C694.984009,252.165512 694.984619,250.859268 694.984619,249.624313 
	C691.468445,248.978134 686.835754,249.428299 685.551941,247.567703 
	C683.875122,245.137680 684.748657,240.879929 684.702393,237.406174 
	C684.593201,229.203888 691.505371,235.057480 694.984924,231.690308 
	C694.984924,228.411804 695.247253,224.123184 694.913147,219.881531 
	C694.559875,215.397034 695.908569,213.159988 701.167603,213.994934 
z"/>
<path fill="#43C2BB" opacity="1.000000" stroke="none" 
	d="
M187.740112,239.734787 
	C185.733826,257.309601 168.513107,266.602112 153.855042,260.519165 
	C143.341553,256.156189 137.012817,244.429581 139.229645,233.255692 
	C141.451599,222.056061 151.623169,213.630005 163.045364,213.526947 
	C174.400085,213.424469 184.455566,221.333847 186.900192,232.413559 
	C187.397858,234.669128 187.490524,237.014053 187.740112,239.734787 
z"/>
<path fill="#43C2BB" opacity="1.000000" stroke="none" 
	d="
M262.555847,217.249222 
	C275.703094,225.611084 279.227142,241.255875 270.864441,252.843979 
	C262.423248,264.540833 246.362656,266.589600 235.250412,257.387054 
	C226.095673,249.805618 223.879410,235.721924 230.266739,225.716980 
	C237.105347,215.005157 250.161789,211.472656 262.555847,217.249222 
z"/>
<path fill="#395E6F" opacity="1.000000" stroke="none" 
	d="
M315.743408,152.919312 
	C322.896423,153.878418 325.862244,149.644272 328.607361,144.513596 
	C330.061523,141.795700 332.591705,139.653503 334.636169,137.251434 
	C336.158447,139.886047 338.374084,142.351593 339.065948,145.188705 
	C340.768951,152.172684 345.078857,155.352814 351.928528,155.906799 
	C353.735260,156.052917 355.527008,156.550568 357.291748,157.015427 
	C360.914490,157.969650 361.280029,160.706131 358.599518,162.289764 
	C348.710052,168.132294 345.436188,176.119049 348.414612,187.211411 
	C349.243500,190.298386 346.793304,192.451859 343.958832,189.949066 
	C335.409424,182.400070 326.809631,181.573196 317.177399,187.888519 
	C314.345001,189.745575 311.729187,187.705109 313.139740,184.509842 
	C317.793121,173.968689 315.627502,165.573441 306.825500,158.295242 
	C303.983826,155.945511 305.545502,153.787781 308.824310,153.267975 
	C310.945282,152.931717 313.137634,153.045486 315.743408,152.919312 
z"/>
<path fill="#395D6F" opacity="1.000000" stroke="none" 
	d="
M961.088135,263.064819 
	C960.605286,266.014862 960.480103,270.502869 959.602173,270.655304 
	C955.277832,271.406128 950.747437,271.118805 946.309326,270.861328 
	C945.801575,270.831879 945.066284,268.711639 945.025696,267.540436 
	C944.376892,248.778259 943.860046,230.011551 943.214783,211.249252 
	C943.102722,207.989548 944.346008,206.645874 947.586487,206.966858 
	C949.067261,207.113571 950.575256,206.964386 952.070007,206.995056 
	C964.127625,207.242447 963.014648,204.774673 962.607178,217.772980 
	C962.138794,232.717773 961.604431,247.660477 961.088135,263.064819 
z"/>
<path fill="#3A5E70" opacity="1.000000" stroke="none" 
	d="
M939.997437,292.978210 
	C941.196350,284.132812 947.995667,279.203491 955.890137,281.046051 
	C962.856873,282.672089 967.053711,289.733063 964.980225,296.339539 
	C963.312866,301.651825 957.619202,305.319122 951.734192,304.871063 
	C945.377625,304.387146 941.291687,300.388824 939.997437,292.978210 
z"/>
<path fill="#FBFCFC" opacity="1.000000" stroke="none" 
	d="
M899.707520,284.611694 
	C891.691895,291.902100 882.889954,289.588257 879.879395,279.623871 
	C877.662781,272.287628 877.735901,264.851593 880.175781,257.578552 
	C882.021606,252.076263 885.860107,249.175827 890.666016,249.101166 
	C895.778198,249.021759 899.883728,251.819931 901.831299,257.412842 
	C905.025330,266.585266 904.837463,275.646118 899.707520,284.611694 
z"/>
<path fill="#FCFCFD" opacity="1.000000" stroke="none" 
	d="
M565.263916,248.974503 
	C574.446960,249.207565 578.897156,253.261917 578.729309,261.089325 
	C570.669250,261.089325 562.604675,261.089325 554.509399,261.089325 
	C555.417053,253.235825 557.690979,250.626572 565.263916,248.974503 
z"/>
</svg>